<?xml version="1.0" standalone="no"?>
<!DOCTYPE svg PUBLIC "-//W3C//DTD SVG 20010904//EN"
 "http://www.w3.org/TR/2001/REC-SVG-20010904/DTD/svg10.dtd">
<svg version="1.0" xmlns="http://www.w3.org/2000/svg"
 width="1200.000000pt" height="1200.000000pt" viewBox="0 0 1200.000000 1200.000000"
 preserveAspectRatio="xMidYMid meet">

<g transform="translate(0.000000,1200.000000) scale(0.100000,-0.100000)"
fill="#000000" stroke="none">
<path d="M4430 7200 l0 -1570 1570 0 1570 0 0 1570 0 1570 -1570 0 -1570 0 0
-1570z m3070 0 l0 -1500 -1500 0 -1500 0 0 1500 0 1500 1500 0 1500 0 0 -1500z"/>
<path d="M5320 8104 c-143 -52 -230 -169 -238 -320 -5 -94 11 -155 59 -228 59
-88 188 -156 297 -156 68 0 77 9 58 54 l-15 37 -22 -22 -21 -21 -23 22 c-13
13 -31 42 -39 66 l-15 44 40 0 c41 0 46 8 29 41 -7 13 -21 19 -44 19 l-34 0
-7 61 c-4 33 -4 90 0 125 l7 64 83 0 c91 0 95 -3 95 -66 l0 -34 -57 -1 -58 -1
75 -25 c58 -19 95 -24 162 -23 l87 1 3 -27 c2 -17 11 -30 25 -35 20 -7 23 -4
29 38 8 57 -8 150 -36 209 -31 63 -101 131 -168 162 -72 34 -201 41 -272 16z
m149 -60 c21 -27 46 -92 38 -100 -2 -3 -36 -4 -75 -2 l-70 3 13 37 c17 51 42
88 60 88 7 0 23 -12 34 -26z m-132 -8 c-3 -8 -11 -32 -18 -55 l-12 -41 -61 0
-60 0 39 39 c51 53 125 90 112 57z m253 -7 c41 -25 90 -69 90 -81 0 -5 -25 -8
-56 -6 l-55 3 -18 53 c-20 59 -15 63 39 31z m-294 -161 c-3 -13 -6 -35 -6 -50
l0 -28 -80 0 c-44 0 -80 3 -80 6 0 3 5 25 11 50 l11 44 75 0 c73 0 75 -1 69
-22z m433 -9 c23 -67 20 -70 -66 -67 l-78 3 -3 48 -3 47 69 0 c70 0 70 0 81
-31z m-439 -153 c0 -19 3 -41 6 -50 5 -14 -5 -16 -69 -16 l-76 0 -10 38 c-18
62 -18 62 69 62 l80 0 0 -34z m33 -177 c10 -28 17 -52 15 -54 -8 -8 -90 41
-120 72 l-32 33 60 0 59 0 18 -51z"/>
<path d="M6010 7235 l-725 -725 23 -22 22 -23 727 727 c721 721 727 727 708
748 -10 11 -21 20 -24 20 -3 0 -332 -326 -731 -725z"/>
<path d="M5480 7685 c0 -6 100 -257 107 -268 2 -4 14 5 26 20 11 15 24 32 28
37 4 5 27 -8 50 -28 23 -20 45 -36 49 -36 3 0 19 13 34 29 l27 28 -23 16 c-13
9 -36 27 -52 41 l-29 24 32 28 c40 33 43 31 -115 78 -125 37 -134 39 -134 31z"/>
<path d="M6580 6900 l0 -30 70 0 70 0 0 -233 c0 -276 3 -268 -106 -275 -64 -4
-64 -4 -64 -35 l0 -30 75 6 c90 8 129 26 152 70 14 28 17 68 17 292 l1 260
-107 3 -108 3 0 -31z"/>
<path d="M3480 4460 l0 -50 110 0 110 0 0 -341 0 -341 -34 -34 -34 -34 -101 0
-101 0 0 -51 0 -52 108 5 c146 7 207 35 250 113 15 26 17 80 20 433 l3 402
-165 0 -166 0 0 -50z"/>
<path d="M4363 4500 c-56 -12 -95 -33 -126 -70 -34 -40 -47 -89 -47 -181 0
-166 58 -232 216 -246 115 -9 119 -14 119 -163 l0 -122 -33 -29 c-32 -29 -33
-29 -157 -29 l-125 0 0 -51 0 -52 133 5 c190 7 252 39 284 147 20 70 14 241
-10 287 -36 69 -105 104 -205 104 -46 0 -58 4 -83 29 -28 28 -29 33 -29 121 0
91 0 92 34 126 l34 34 126 0 126 0 0 50 0 50 -107 -1 c-60 -1 -127 -5 -150 -9z"/>
<path d="M5750 4035 l0 -477 173 4 c159 3 176 5 222 28 76 38 89 69 93 221 3
110 1 133 -16 172 -11 25 -32 53 -46 62 l-26 17 30 34 c40 47 54 102 47 202
-8 106 -32 153 -96 184 -40 19 -66 22 -213 26 l-168 5 0 -478z m324 364 c32
-15 46 -56 46 -136 0 -72 -19 -126 -48 -142 -12 -6 -64 -11 -116 -11 l-96 0 0
150 0 150 95 0 c52 0 105 -5 119 -11z m28 -419 l30 -30 -4 -126 c-4 -164 -4
-164 -159 -164 l-109 0 0 175 0 175 106 0 c104 0 106 0 136 -30z"/>
<path d="M6720 4504 c0 -4 -49 -213 -110 -464 -60 -252 -110 -463 -110 -469 0
-7 21 -11 53 -11 l54 0 22 103 c12 56 25 110 27 120 5 15 20 17 139 17 119 0
134 -2 139 -17 6 -21 46 -210 46 -218 0 -3 25 -5 55 -5 30 0 55 4 55 9 0 9
-206 888 -216 924 -5 14 -18 17 -80 17 -41 0 -74 -3 -74 -6z m130 -330 c27
-126 52 -239 55 -251 5 -23 5 -23 -110 -23 -106 0 -116 2 -111 18 3 9 26 116
51 237 52 246 55 258 61 252 3 -2 27 -107 54 -233z"/>
<path d="M7330 4035 l0 -475 50 0 50 0 0 417 c0 234 4 413 9 408 4 -6 18 -50
30 -100 12 -49 58 -233 103 -407 l81 -318 93 0 94 0 0 475 0 475 -50 0 -50 0
0 -427 c0 -241 -4 -423 -9 -418 -4 6 -55 198 -112 428 l-104 417 -92 0 -93 0
0 -475z"/>
<path d="M8120 4034 l0 -476 183 4 c164 3 187 6 229 26 35 18 52 34 67 66 20
40 21 59 21 378 0 330 0 336 -23 378 -41 77 -118 100 -344 100 l-133 0 0 -476z
m343 365 c47 -22 50 -39 50 -336 -1 -377 1 -350 -28 -378 -23 -24 -30 -25
-140 -25 l-115 0 0 375 0 375 105 0 c57 0 115 -5 128 -11z"/>
</g>
</svg>
