<svg width="214" height="173" xmlns="http://www.w3.org/2000/svg">
 <g>
  <title>background</title>
  <rect x="-1" y="-1" width="216" height="175" id="canvas_background" fill="none"/>
 </g>

 <g>
  <title>Layer 1</title>
  <g stroke="null" id="svg_1">
   <circle stroke="null" cx="154.333445" cy="151.003969" r="15.66658" fill="#202021" id="svg_2"/>
   <circle stroke="null" cx="91.666578" cy="151.003969" r="15.666571" fill="#202021" id="svg_3"/>
  </g>
  <path stroke="null" d="m181.807772,47.482065c-0.656484,-0.743324 -1.600707,-1.168776 -2.592239,-1.168128l-124.427457,0c-1.90886,-0.000324 -3.45675,1.546594 -3.457074,3.455454c0,0.232329 0.02333,0.464335 0.06999,0.692128l13.825381,69.126257c0.328566,1.609456 1.744577,2.765271 3.387084,2.764947c0.15197,0.010045 0.304264,0.010045 0.456234,0l103.689548,-13.825381c1.557611,-0.208027 2.77888,-1.440637 2.972326,-3.000192l6.912528,-55.3012c0.132204,-0.992503 -0.173032,-1.993432 -0.836321,-2.743885z" fill="#ff5722" id="svg_4"/>
  <g stroke="null" id="svg_5">
   <path stroke="null" d="m80.943933,106.982751c-1.886434,-0.000724 -3.495727,-1.365439 -3.805068,-3.226185l-7.718314,-46.31061c-0.286185,-2.112198 1.193945,-4.056158 3.306143,-4.342343c2.022471,-0.274246 3.908905,1.074189 4.304354,3.076761l7.718314,46.31061c0.348415,2.101344 -1.071295,4.087635 -3.172277,4.438221c-0.209121,0.035818 -0.420775,0.053908 -0.633153,0.053547z" fill="#FAFAFA" id="svg_6"/>
   <path stroke="null" d="m100.240261,103.123413c-2.002934,0.00796 -3.679161,-1.517034 -3.859338,-3.512008l-3.859338,-42.451272c-0.199715,-2.121967 1.358565,-4.004059 3.480894,-4.203773c0.010492,-0.001085 0.020623,-0.001809 0.031115,-0.002894c2.12269,-0.192117 3.998994,1.373399 4.19111,3.496089c0,0 0,0.000362 0,0.000362l3.859338,42.451272c0.191755,2.12269 -1.373399,3.998994 -3.496089,4.19111c0,0 -0.000362,0 -0.000362,0l-0.34733,0.031115z" fill="#FAFAFA" id="svg_7"/>
   <path stroke="null" d="m119.536228,99.264075c-2.131373,0 -3.859338,-1.727965 -3.859338,-3.859338l0,-38.591933c0,-2.131373 1.727965,-3.859338 3.859338,-3.859338c2.131373,0 3.859338,1.727965 3.859338,3.859338l0,38.592295c0,2.131373 -1.727965,3.858976 -3.859338,3.858976z" fill="#FAFAFA" id="svg_8"/>
   <path stroke="null" d="m138.832195,95.405098l-0.432353,0c-2.119434,-0.224317 -3.655644,-2.124499 -3.431327,-4.244295c0.001447,-0.013025 0.002894,-0.026412 0.004342,-0.039436l3.859338,-34.732957c0.250367,-2.12269 2.157423,-3.651664 4.283731,-3.434583c2.118349,0.234447 3.645875,2.141504 3.411789,4.260214c0,0 0,0.000362 0,0.000362l-3.859338,34.732957c-0.205503,1.964221 -1.860746,3.456291 -3.836183,3.457738z" fill="#FAFAFA" id="svg_9"/>
   <path stroke="null" d="m158.128523,91.54576c-2.131373,-0.000724 -3.858614,-1.72905 -3.858253,-3.860423c0,-0.314406 0.038713,-0.627726 0.114691,-0.932725l7.718314,-30.873619c0.46781,-2.079274 2.532973,-3.38574 4.612247,-2.91793c2.079274,0.46781 3.38574,2.532973 2.91793,4.612247c-0.013025,0.05825 -0.027497,0.116138 -0.043416,0.173665l-7.718314,30.873619c-0.428373,1.718558 -1.972181,2.924804 -3.7432,2.925166z" fill="#FAFAFA" id="svg_10"/>
  </g>
  <path stroke="null" transform="rotate(0.7310911417007446 94.9480743408197,77.38180541992274) " d="m164.803221,133.266112l-80.619945,0c-11.643342,-0.026851 -21.662222,-8.238554 -23.974322,-19.650391l-17.023615,-85.132485l-18.092401,0c-1.928987,0 -3.492872,-1.563884 -3.492872,-3.492872s1.563884,-3.492872 3.492872,-3.492872l20.956575,0c1.660154,-0.000327 3.090767,1.167674 3.422798,2.794101l17.589443,87.94787c1.648693,8.152108 8.804381,14.020276 17.121522,14.040905l80.619945,0c1.928987,0 3.492872,1.563884 3.492872,3.492872c0,1.928987 -1.563884,3.492872 -3.492872,3.492872z" fill="#202021" id="svg_11"/>
  <g id="svg_12"/>
  <g id="svg_13"/>
  <g id="svg_14"/>
  <g id="svg_15"/>
  <g id="svg_16"/>
  <g id="svg_17"/>
  <g id="svg_18"/>
  <g id="svg_19"/>
  <g id="svg_20"/>
  <g id="svg_21"/>
  <g id="svg_22"/>
  <g id="svg_23"/>
  <g id="svg_24"/>
  <g id="svg_25"/>
  <g id="svg_26"/>
 </g>
</svg>